<svg width="718" height="440" viewBox="0 0 718 440" fill="none" xmlns="http://www.w3.org/2000/svg">
<path d="M512.339 298.4H556.539V400.8H627.139V436H512.339V298.4Z" fill="white"/>
<path d="M482.738 380.6C482.738 399.4 476.804 413.733 464.938 423.6C453.071 433.467 436.204 438.4 414.337 438.4C392.471 438.4 375.538 433.467 363.538 423.6C351.671 413.733 345.737 399.4 345.737 380.6V298.4H389.938V380C389.938 387.733 392.004 393.933 396.138 398.6C400.271 403.133 406.271 405.4 414.138 405.4C422.004 405.4 428.004 403.067 432.138 398.4C436.404 393.733 438.538 387.6 438.538 380V298.4H482.738V380.6Z" fill="white"/>
<path d="M247.536 296C271.269 296 289.603 302.067 302.536 314.2C315.469 326.333 321.936 344 321.936 367.2C321.936 390.4 315.469 408.067 302.536 420.2C289.603 432.333 271.269 438.4 247.536 438.4C223.803 438.4 205.469 432.4 192.536 420.4C179.736 408.267 173.336 390.533 173.336 367.2C173.336 343.867 179.736 326.2 192.536 314.2C205.469 302.067 223.803 296 247.536 296ZM247.536 329C238.069 329 230.869 331.867 225.936 337.6C221.003 343.333 218.536 351.067 218.536 360.8V373.6C218.536 383.333 221.003 391.067 225.936 396.8C230.869 402.533 238.069 405.4 247.536 405.4C257.003 405.4 264.203 402.533 269.136 396.8C274.203 391.067 276.736 383.333 276.736 373.6V360.8C276.736 351.067 274.203 343.333 269.136 337.6C264.203 331.867 257.003 329 247.536 329Z" fill="white"/>
<path d="M92.6 296C110.2 296 124.667 299.6 136 306.8C147.333 313.867 153.133 324.4 153.4 338.4V340.8H112V340C112 336 110.533 332.667 107.6 330C104.667 327.333 100.2 326 94.2 326C88.3333 326 83.8 326.867 80.6 328.6C77.5333 330.333 76 332.467 76 335C76 338.6 78.1333 341.267 82.4 343C86.6667 344.733 93.5333 346.533 103 348.4C114.067 350.667 123.133 353.067 130.2 355.6C137.4 358 143.667 362 149 367.6C154.333 373.2 157.067 380.8 157.2 390.4C157.2 406.667 151.667 418.733 140.6 426.6C129.667 434.467 115 438.4 96.6 438.4C75.1333 438.4 58.4 434.8 46.4 427.6C34.5333 420.4 28.6 407.667 28.6 389.4H70.4C70.4 396.333 72.2 401 75.8 403.4C79.4 405.667 85 406.8 92.6 406.8C98.2 406.8 102.8 406.2 106.4 405C110.133 403.8 112 401.333 112 397.6C112 394.267 109.933 391.8 105.8 390.2C101.8 388.467 95.2 386.667 86 384.8C74.8 382.4 65.5333 379.933 58.2 377.4C50.8667 374.733 44.4667 370.4 39 364.4C33.5333 358.4 30.8 350.267 30.8 340C30.8 324.933 36.6 313.867 48.2 306.8C59.9333 299.6 74.7333 296 92.6 296Z" fill="white"/>
<path d="M627.139 400.8H556.539V298.4H512.339V436H627.139V400.8ZM557.539 399.8H628.139V437H511.339V297.4H557.539V399.8Z" fill="black"/>
<path d="M389.938 380V298.4H345.737V380.6C345.737 399.4 351.671 413.733 363.538 423.6C375.162 433.158 391.417 438.087 412.302 438.386L414.337 438.4C436.204 438.4 453.071 433.467 464.938 423.6C476.804 413.733 482.738 399.4 482.738 380.6V298.4H438.538V380L438.531 380.708C438.402 387.982 436.271 393.879 432.138 398.4L431.744 398.831C427.627 403.21 421.758 405.4 414.138 405.4L414.138 404.4C421.798 404.4 427.493 402.136 431.389 397.737L431.395 397.731L431.399 397.726C435.465 393.279 437.537 387.403 437.537 380V297.4H483.737V380.6C483.737 399.626 477.722 414.271 465.577 424.369C453.469 434.437 436.342 439.4 414.338 439.4C392.333 439.4 375.142 434.436 362.902 424.372L362.898 424.369C350.754 414.271 344.737 399.626 344.737 380.6V297.4H390.938V380C390.938 387.547 392.95 393.489 396.882 397.932C400.775 402.198 406.471 404.4 414.138 404.4L414.138 405.4L413.405 405.394C405.898 405.256 400.142 402.992 396.138 398.6C392.133 394.079 390.069 388.119 389.943 380.721L389.938 380Z" fill="black"/>
<path d="M321.936 367.2C321.936 344.362 315.67 326.886 303.138 314.772L302.536 314.2C289.805 302.256 271.841 296.192 248.645 296.005L247.536 296C223.803 296 205.469 302.067 192.536 314.2L191.94 314.767C179.537 326.753 173.336 344.231 173.336 367.2L173.341 368.29C173.538 391.086 179.936 408.456 192.536 420.4C205.267 432.212 223.231 438.211 246.428 438.396L247.536 438.4C270.898 438.4 289.028 432.522 301.926 420.765L302.536 420.2C315.267 408.256 321.733 390.951 321.932 368.283L321.936 367.2ZM275.736 373.6V360.8C275.736 351.242 273.252 343.767 268.387 338.262L268.378 338.252C263.681 332.793 256.791 330 247.536 330C238.282 330 231.391 332.793 226.694 338.252C221.958 343.757 219.536 351.236 219.536 360.8V373.6C219.536 383.164 221.958 390.643 226.694 396.147C231.391 401.606 238.281 404.4 247.536 404.4L247.536 405.4L246.655 405.392C237.622 405.218 230.715 402.354 225.936 396.8C221.157 391.246 218.692 383.815 218.543 374.507L218.536 373.6V360.8C218.536 351.067 221.003 343.333 225.936 337.6C230.869 331.867 238.069 329 247.536 329L248.417 329.009C257.45 329.182 264.357 332.046 269.136 337.6C274.203 343.333 276.736 351.067 276.736 360.8V373.6L276.729 374.507C276.575 383.815 274.044 391.246 269.136 396.8C264.203 402.533 257.003 405.4 247.536 405.4L247.536 404.4C256.791 404.4 263.681 401.606 268.378 396.147L268.387 396.138C273.252 390.633 275.736 383.157 275.736 373.6ZM322.936 367.2C322.936 390.587 316.412 408.554 303.22 420.93C290.046 433.289 271.435 439.4 247.536 439.4C223.639 439.4 205.03 433.356 191.855 421.133L191.848 421.126C178.79 408.748 172.336 390.715 172.336 367.2C172.336 343.686 178.79 325.716 191.852 313.471C205.026 301.111 223.636 295 247.536 295C271.436 295 290.046 301.112 303.22 313.471C316.412 325.847 322.936 343.813 322.936 367.2Z" fill="black"/>
<path d="M70.4 389.4H28.6C28.6 407.667 34.5333 420.4 46.4 427.6C58.025 434.575 74.0923 438.172 94.6016 438.39L96.6 438.4C115 438.4 129.667 434.467 140.6 426.6C151.494 418.856 157.026 407.043 157.196 391.159L157.2 390.4C157.067 380.8 154.333 373.2 149 367.6C143.667 362 137.4 358 130.2 355.6C123.133 353.067 114.067 350.667 103 348.4C94.1251 346.65 87.5352 344.959 83.2305 343.326L82.4 343C78.1333 341.267 76 338.6 76 335C76 332.467 77.5333 330.333 80.6 328.6C83.8 326.867 88.3333 326 94.2 326L94.7578 326.004C100.477 326.085 104.758 327.417 107.6 330C110.533 332.667 112 336 112 340V340.8H153.4V338.4C153.133 324.4 147.333 313.867 136 306.8C125.021 299.825 111.101 296.229 94.2412 296.011L92.6 296C74.7333 296 59.9333 299.6 48.2 306.8L47.6602 307.134C36.4199 314.213 30.8 325.169 30.8 340L30.8076 340.956C30.9731 350.773 33.7041 358.587 39 364.4C44.4667 370.4 50.8667 374.733 58.2 377.4C65.5333 379.933 74.8 382.4 86 384.8C95.2 386.667 101.8 388.467 105.8 390.2C109.933 391.8 112 394.267 112 397.6C112 401.333 110.133 403.8 106.4 405C102.8 406.2 98.2 406.8 92.6 406.8L92.5996 405.8C98.1383 405.8 102.622 405.206 106.084 404.052L106.094 404.048C107.817 403.494 109.023 402.677 109.803 401.646C110.579 400.621 111 399.295 111 397.6C111 396.159 110.56 394.939 109.684 393.893C108.792 392.828 107.405 391.894 105.439 391.133L105.402 391.117C101.505 389.428 94.9919 387.645 85.8008 385.78L85.79 385.778C74.5674 383.373 65.2579 380.896 57.873 378.345L57.8662 378.343L57.8584 378.34C50.3668 375.616 43.8319 371.188 38.2607 365.073C32.5854 358.844 29.7998 350.447 29.7998 340C29.7998 324.631 35.7437 313.218 47.6768 305.947C59.6078 298.626 74.6025 295 92.5996 295C110.328 295 124.993 298.626 136.528 305.951C148.165 313.207 154.127 324.062 154.399 338.381L154.4 338.391V341.8H111V340C111 336.279 109.65 333.215 106.928 330.74C104.253 328.309 100.075 327 94.2002 327C88.4126 327 84.0723 327.858 81.082 329.476C78.1984 331.108 77 332.964 77 335C77 336.586 77.4641 337.929 78.3809 339.075C79.3099 340.236 80.7485 341.249 82.7764 342.073C86.6884 343.663 92.8984 345.332 101.451 347.07L103.193 347.419L103.2 347.42C114.289 349.691 123.405 352.102 130.531 354.656C137.883 357.11 144.284 361.198 149.725 366.91C155.271 372.734 158.064 380.598 158.2 390.386V390.4C158.2 406.918 152.564 419.322 141.18 427.415C130.024 435.44 115.132 439.4 96.5996 439.4C75.041 439.4 58.1029 435.787 45.8857 428.457L45.8809 428.455C33.6223 421.017 27.5997 407.891 27.5996 389.4V388.4H71.4004V389.4C71.4005 396.194 73.1634 400.428 76.3369 402.556C79.6956 404.669 85.0627 405.8 92.5996 405.8L92.6 406.8C85 406.8 79.4 405.667 75.8 403.4C72.2 401 70.4 396.333 70.4 389.4Z" fill="black"/>
<path d="M672.67 291V238.8H624.07V291H579.87V153.4H624.07V203.6H672.67V153.4H716.87V291H672.67Z" fill="white"/>
<path d="M514.734 188.6V291H470.534V188.6H425.334V153.4H559.734V188.6H514.734Z" fill="white"/>
<path d="M359.8 291V153.4H404V291H359.8Z" fill="white"/>
<path d="M261.2 291L243.4 207.2H242.6L224.8 291H176.2L144 153.4H190L205.8 231.4H206.6L222.2 153.4H265.8L282.4 231.4H283.2L298 153.4H342L309.8 291H261.2Z" fill="white"/>
<path d="M624.07 153.4H579.87V291H624.07V238.8H672.67V291H716.87V153.4H672.67V203.6H624.07V153.4ZM717.87 292H671.67V239.8H625.07V292H578.87V152.4H625.07V202.6H671.67V152.4H717.87V292Z" fill="black"/>
<path d="M559.734 188.6V153.4H425.334V188.6H470.534V291H514.734V188.6H559.734ZM560.734 189.6H515.734V292H469.534V189.6H424.334V152.4H560.734V189.6Z" fill="black"/>
<path d="M404 153.4H359.8V291H404V153.4ZM405 292H358.8V152.4H405V292Z" fill="black"/>
<path d="M190.817 152.4L190.98 153.201L206.196 228.317L221.38 152.4H266.609L282.767 228.319L297.172 152.4H343.261L310.593 292H260.39L243 210.13L225.61 292H175.407L142.739 152.4H190.817ZM144 153.4L176.2 291H224.8L242.6 207.2H243.4L261.2 291H309.8L342 153.4H298L283.2 231.4H282.4L265.8 153.4H222.2L206.6 231.4H205.8L190 153.4H144Z" fill="black"/>
<path d="M506.339 3.39999H625.339V36.4H550.539V55.4H614.539V87H550.539V108H626.739V141H506.339V3.39999Z" fill="white"/>
<path d="M388.075 141L339.275 3.39999H386.475L414.075 95.4H414.875L442.675 3.39999H487.875L439.275 141H388.075Z" fill="white"/>
<path d="M261.067 1C284.801 1 303.134 7.06666 316.067 19.2C329.001 31.3333 335.467 49 335.467 72.2C335.467 95.4 329.001 113.067 316.067 125.2C303.134 137.333 284.801 143.4 261.067 143.4C237.334 143.4 219.001 137.4 206.067 125.4C193.267 113.267 186.867 95.5333 186.867 72.2C186.867 48.8667 193.267 31.2 206.067 19.2C219.001 7.06666 237.334 1 261.067 1ZM261.067 34C251.601 34 244.401 36.8667 239.467 42.6C234.534 48.3333 232.067 56.0667 232.067 65.8V78.6C232.067 88.3333 234.534 96.0667 239.467 101.8C244.401 107.533 251.601 110.4 261.067 110.4C270.534 110.4 277.734 107.533 282.667 101.8C287.734 96.0667 290.267 88.3333 290.267 78.6V65.8C290.267 56.0667 287.734 48.3333 282.667 42.6C277.734 36.8667 270.534 34 261.067 34Z" fill="white"/>
<path d="M122 141V91.4C122 85.2667 122.2 79 122.6 72.6C123.133 66.0667 123.667 60.6 124.2 56.2C124.733 51.8 125.067 49 125.2 47.8H124.4L99 141H64.4L38.8 48H38C38.1333 49.2 38.4667 52 39 56.4C39.6667 60.6667 40.2667 66.0667 40.8 72.6C41.3333 79 41.6 85.2667 41.6 91.4V141H1V3.39999H63.4L84.2 82.8H85L105.6 3.39999H165.8V141H122Z" fill="white"/>
<path d="M626.739 108H550.539V87H614.539V55.4H550.539V36.4H625.339V3.39999H506.339V141H626.739V108ZM626.339 37.4004H551.539V54.4004H615.539V88H551.539V107H627.739V142H505.339V2.40039H626.339V37.4004Z" fill="black"/>
<path d="M387.219 2.40039L414.477 93.2588L441.933 2.40039H489.289L439.982 142H387.368L387.133 141.334L337.859 2.40039H387.219ZM339.275 3.39999L388.075 141H439.275L487.875 3.39999H442.675L414.875 95.4H414.075L386.475 3.39999H339.275Z" fill="black"/>
<path d="M335.467 72.2C335.467 49.3625 329.201 31.8864 316.669 19.7725L316.067 19.2C303.336 7.25626 285.372 1.19151 262.176 1.00488L261.067 1C237.334 1 219.001 7.06666 206.067 19.2L205.472 19.7666C193.069 31.7534 186.867 49.2313 186.867 72.2L186.872 73.29C187.069 96.0863 193.467 113.456 206.067 125.4C218.798 137.212 236.763 143.211 259.959 143.396L261.067 143.4C284.43 143.4 302.56 137.522 315.457 125.765L316.067 125.2C328.798 113.256 335.264 95.9506 335.463 73.2832L335.467 72.2ZM289.268 78.5996V65.7998C289.268 56.242 286.783 48.7668 281.918 43.2617L281.909 43.252C277.212 37.7933 270.322 35 261.067 35C251.813 35 244.923 37.7934 240.226 43.252C235.489 48.7568 233.067 56.2357 233.067 65.7998V78.5996C233.067 88.1638 235.489 95.6425 240.226 101.147C244.923 106.606 251.813 109.4 261.067 109.4L261.067 110.4L260.187 110.392C251.153 110.218 244.246 107.354 239.467 101.8C234.688 96.2459 232.224 88.8146 232.074 79.5068L232.067 78.6V65.8C232.067 56.0667 234.534 48.3333 239.467 42.6C244.401 36.8667 251.601 34 261.067 34L261.948 34.0088C270.982 34.1824 277.888 37.0461 282.667 42.6C287.734 48.3333 290.267 56.0667 290.267 65.8V78.6L290.26 79.5068C290.106 88.8148 287.575 96.2459 282.667 101.8C277.734 107.533 270.534 110.4 261.067 110.4L261.067 109.4C270.322 109.4 277.212 106.606 281.909 101.147L281.918 101.138C286.783 95.6326 289.268 88.1574 289.268 78.5996ZM336.467 72.2002C336.467 95.5869 329.943 113.554 316.751 125.93C303.577 138.289 284.967 144.4 261.067 144.4C237.17 144.4 218.561 138.356 205.387 126.133L205.379 126.126C192.321 113.748 185.867 95.7153 185.867 72.2002C185.867 48.6859 192.321 30.7163 205.383 18.4707C218.557 6.11145 237.168 0 261.067 0C284.967 3.30057e-05 303.577 6.11161 316.751 18.4707C329.943 30.8466 336.467 48.8134 336.467 72.2002Z" fill="black"/>
<path d="M165.8 3.39999H105.6L85 82.8H84.2L63.4 3.39999H1V141H41.6V91.4C41.6 85.2667 41.3333 79 40.8 72.6C40.2667 66.0667 39.6667 60.6667 39 56.4C38.4667 52 38.1333 49.2 38 48H38.8L64.4 141H99L124.4 47.8H125.2C125.067 49 124.733 51.8 124.2 56.2L124 57.9004C123.533 61.9836 123.067 66.8837 122.6 72.6C122.2 79 122 85.2667 122 91.4V141H165.8V3.39999ZM166.8 142H121V91.4004C121 85.2455 121.2 78.9577 121.602 72.5381L121.604 72.5186C122.137 65.978 122.672 60.4975 123.207 56.0801C123.214 56.0211 123.22 55.9618 123.228 55.9033L99.7637 142H63.6377L39.9551 55.9648C39.9675 56.0677 39.9795 56.1716 39.9922 56.2764C40.662 60.5709 41.2638 65.9864 41.7969 72.5166L41.9844 74.9209C42.3944 80.515 42.5996 86.0084 42.5996 91.4004V142H0V2.40039H64.1719L84.5967 80.3711L104.826 2.40039H166.8V142Z" fill="black"/>
</svg>
